<?xml version="1.0" standalone="no"?><!DOCTYPE svg PUBLIC "-//W3C//DTD SVG 1.1//EN" "http://www.w3.org/Graphics/SVG/1.1/DTD/svg11.dtd"><svg t="1619404601733" class="icon" viewBox="0 0 1114 1024" version="1.1" xmlns="http://www.w3.org/2000/svg" p-id="17361" xmlns:xlink="http://www.w3.org/1999/xlink" width="156.65625" height="144"><defs><style type="text/css"></style></defs><path d="M301.176 428.122h783.06v559.285h-783.06V428.122z" fill="#FFCB57" p-id="17362"></path><path d="M933.647 1024H180.706A180.706 180.706 0 0 1 0 843.294V391.53a180.706 180.706 0 0 1 180.706-180.705h752.941a180.706 180.706 0 0 1 180.706 180.705v451.765A180.706 180.706 0 0 1 933.647 1024zM180.706 271.059a120.47 120.47 0 0 0-120.47 120.47v451.765a120.47 120.47 0 0 0 120.47 120.47h752.941a120.47 120.47 0 0 0 120.47-120.47V391.53a120.47 120.47 0 0 0-120.47-120.47z" fill="#472D22" p-id="17363"></path><path d="M331.294 828.235A180.706 180.706 0 1 1 512 647.53a180.706 180.706 0 0 1-180.706 180.706z m0-301.176a120.47 120.47 0 1 0 120.47 120.47 120.47 120.47 0 0 0-120.47-120.47z m391.53 225.882a30.118 30.118 0 0 1-30.118-30.117V557.176a30.118 30.118 0 0 1 60.235 0v165.648a30.118 30.118 0 0 1-30.117 30.117z m210.823 0a30.118 30.118 0 0 1-30.118-30.117V557.176a30.118 30.118 0 0 1 60.236 0v165.648a30.118 30.118 0 0 1-30.118 30.117z m-105.412 60.235a30.118 30.118 0 0 1-30.117-30.117V496.94a30.118 30.118 0 0 1 60.235 0V783.06a30.118 30.118 0 0 1-30.118 30.117zM873.412 256a30.118 30.118 0 0 1-21.233-8.885L656.414 51.351a30.118 30.118 0 0 1 0-42.466 30.118 30.118 0 0 1 42.466 0l195.765 195.764A30.118 30.118 0 0 1 873.412 256z" fill="#472D22" p-id="17364"></path></svg>